name C:\Users\antoi\Documents\MyRepositories\upper-imu-dc\Results\main_tracking\Case_69\FLX01_orientations_groundFrame.mot
datacolumns 13
datarows 18
range 0.51000000 0.68000000
endheader 
time	radius_imu_[0][0]	radius_imu_[0][1]	radius_imu_[0][2]	radius_imu_[1][0]	radius_imu_[1][1]	radius_imu_[1][2]	radius_imu_[2][0]	radius_imu_[2][1]	radius_imu_[2][2]	radius_imu_x	radius_imu_y	radius_imu_z	
          0.51000000	          0.69579790	         -0.02861102	          0.71766754	         -0.13948373	          0.97480005	          0.17409525	         -0.70456339	         -0.22123805	          0.67427305	         -0.25267844	          0.80044713	          0.04109657	
          0.52000000	          0.69463389	         -0.03137034	          0.71867911	         -0.13933282	          0.97426247	          0.17719765	         -0.70574083	         -0.22322308	          0.67238481	         -0.25767736	          0.80190082	          0.04513030	
          0.53000000	          0.69342949	         -0.03420413	          0.71971218	         -0.13910059	          0.97372687	          0.18029698	         -0.70696999	         -0.22513564	          0.67045312	         -0.26270318	          0.80338766	          0.04928609	
          0.54000000	          0.69215999	         -0.03712858	          0.72078847	         -0.13878044	          0.97319318	          0.18339853	         -0.70827575	         -0.22697246	          0.66845266	         -0.26777369	          0.80493915	          0.05359025	
          0.55000000	          0.69079860	         -0.04015893	          0.72193113	         -0.13837663	          0.97265816	          0.18651543	         -0.70968247	         -0.22874299	          0.66635384	         -0.27292013	          0.80658906	          0.05806871	
          0.56000000	          0.68931822	         -0.04331076	          0.72316290	         -0.13789782	          0.97211698	          0.18966488	         -0.71121346	         -0.23046205	          0.66412548	         -0.27818097	          0.80837082	          0.06274881	
          0.57000000	          0.68769398	         -0.04660013	          0.72450357	         -0.13735418	          0.97156381	          0.19286675	         -0.71288907	         -0.23214690	          0.66173786	         -0.28359894	          0.81031389	          0.06765946	
          0.58000000	          0.68590608	         -0.05004346	          0.72596729	         -0.13675573	          0.97099217	          0.19614299	         -0.71472423	         -0.23381585	          0.65916570	         -0.28921905	          0.81243985	          0.07283059	
          0.59000000	          0.68394241	         -0.05365715	          0.72756009	         -0.13611121	          0.97039506	          0.19951735	         -0.71672625	         -0.23548747	          0.65639100	         -0.29508689	          0.81475872	          0.07829237	
          0.60000000	          0.68180071	         -0.05745734	          0.72927803	         -0.13542721	          0.96976508	          0.20301515	         -0.71889308	         -0.23717996	          0.65340524	         -0.30124716	          0.81726618	          0.08407427	
          0.61000000	          0.67948979	         -0.06145968	          0.73110624	         -0.13470747	          0.96909458	          0.20666298	         -0.72121253	         -0.23891086	          0.65021080	         -0.30774233	          0.81994197	          0.09020429	
          0.62000000	          0.67702967	         -0.06567922	          0.73301914	         -0.13395256	          0.96837563	          0.21048838	         -0.72366258	         -0.24069667	          0.64682114	         -0.31461151	          0.82274995	          0.09670823	
          0.63000000	          0.67445041	         -0.07013037	          0.73498189	         -0.13315978	          0.96760009	          0.21451932	         -0.72621286	         -0.24255267	          0.64325973	         -0.32188963	          0.82563997	          0.10360916	
          0.64000000	          0.67178966	         -0.07482698	          0.73695290	         -0.13232348	          0.96675964	          0.21878365	         -0.72882724	         -0.24449277	          0.63955777	         -0.32960702	          0.82855129	          0.11092730	
          0.65000000	          0.66908939	         -0.07978260	          0.73888709	         -0.13143552	          0.96584574	          0.22330854	         -0.73146709	         -0.24652938	          0.63575087	         -0.33778944	          0.83141724	          0.11868021	
          0.66000000	          0.66639230	         -0.08501067	          0.74073915	         -0.13048591	          0.96484960	          0.22811987	         -0.73409450	         -0.24867335	          0.63187565	         -0.34645843	          0.83416996	          0.12688318	
          0.67000000	          0.66373869	         -0.09052474	          0.74246631	         -0.12946331	          0.96376218	          0.23324174	         -0.73667510	         -0.25093372	          0.62796661	         -0.35563168	          0.83674459	          0.13554979	
          0.68000000	          0.66116360	         -0.09633865	          0.74403062	         -0.12835555	          0.96257419	          0.23869598	         -0.73918032	         -0.25331756	          0.62405342	         -0.36532353	          0.83908281	          0.14469248	
